solid prince_ruperts_cube
facet normal -0.23570226039551762 -0.23570226039551792 -0.9428090415820626
  outer loop
    vertex 292.89321881345427 1000.0 957.1067811865479
    vertex 914.213562373096 207.10678118654988 1000.0
    vertex 207.10678118654786 914.2135623730935 1000.0000000000006
  endloop
endfacet
facet normal -0.23570226039551762 -0.23570226039551792 -0.9428090415820626
  outer loop
    vertex 914.213562373096 207.10678118654988 1000.0
    vertex 292.89321881345427 1000.0 957.1067811865479
    vertex 1000.0 1000.0 780.3300858899094
  endloop
endfacet
facet normal -0.23570226039551762 -0.23570226039551792 -0.9428090415820626
  outer loop
    vertex 914.213562373096 207.10678118654988 1000.0
    vertex 1000.0 1000.0 780.3300858899094
    vertex 1000.0 292.893218813453 957.1067811865482
  endloop
endfacet
facet normal -0.7071067811865485 0.7071067811865468 -4.440892098500626e-16
  outer loop
    vertex 914.213562373096 207.10678118654988 1000.0
    vertex 707.1067811865474 0.0 42.89321881345277
    vertex 707.1067811865474 0.0 1000.0
  endloop
endfacet
facet normal -0.7071067811865485 0.7071067811865468 -4.440892098500626e-16
  outer loop
    vertex 707.1067811865474 0.0 42.89321881345277
    vertex 914.213562373096 207.10678118654988 1000.0
    vertex 792.8932188134528 85.78643762690544 0.0
  endloop
endfacet
facet normal -0.7071067811865485 0.7071067811865468 -4.440892098500626e-16
  outer loop
    vertex 792.8932188134528 85.78643762690544 0.0
    vertex 914.213562373096 207.10678118654988 1000.0
    vertex 1000.0 292.89321881345273 0.0
  endloop
endfacet
facet normal -0.7071067811865485 0.7071067811865468 -4.440892098500626e-16
  outer loop
    vertex 1000.0 292.89321881345273 0.0
    vertex 914.213562373096 207.10678118654988 1000.0
    vertex 1000.0 292.893218813453 957.1067811865482
  endloop
endfacet
facet normal 0.7071067811865462 -0.707106781186549 -3.885780586188047e-16
  outer loop
    vertex 292.89321881345427 1000.0 957.1067811865479
    vertex 85.78643762690587 792.8932188134528 -4.511946372076636e-14
    vertex 292.8932188134542 1000.0 -9.023892744153272e-14
  endloop
endfacet
facet normal 0.7071067811865462 -0.707106781186549 -3.885780586188047e-16
  outer loop
    vertex 85.78643762690587 792.8932188134528 -4.511946372076636e-14
    vertex 292.89321881345427 1000.0 957.1067811865479
    vertex -9.023892744153272e-14 707.1067811865471 42.893218813452854
  endloop
endfacet
facet normal 0.7071067811865462 -0.707106781186549 -3.885780586188047e-16
  outer loop
    vertex -9.023892744153272e-14 707.1067811865471 42.893218813452854
    vertex 292.89321881345427 1000.0 957.1067811865479
    vertex -7.895906151134113e-14 707.1067811865462 1000.0
  endloop
endfacet
facet normal 0.7071067811865462 -0.707106781186549 -3.885780586188047e-16
  outer loop
    vertex -7.895906151134113e-14 707.1067811865462 1000.0
    vertex 292.89321881345427 1000.0 957.1067811865479
    vertex 207.10678118654786 914.2135623730935 1000.0000000000006
  endloop
endfacet
facet normal 0.23570226039551606 0.23570226039551595 0.9428090415820634
  outer loop
    vertex -5.639932965095795e-14 -9.023892744153272e-14 219.66991411008974
    vertex 85.78643762690587 792.8932188134528 -4.511946372076636e-14
    vertex -9.023892744153272e-14 707.1067811865471 42.893218813452854
  endloop
endfacet
facet normal 0.23570226039551606 0.23570226039551595 0.9428090415820634
  outer loop
    vertex 85.78643762690587 792.8932188134528 -4.511946372076636e-14
    vertex -5.639932965095795e-14 -9.023892744153272e-14 219.66991411008974
    vertex 707.1067811865474 0.0 42.89321881345277
  endloop
endfacet
facet normal 0.23570226039551606 0.23570226039551595 0.9428090415820634
  outer loop
    vertex 85.78643762690587 792.8932188134528 -4.511946372076636e-14
    vertex 707.1067811865474 0.0 42.89321881345277
    vertex 792.8932188134528 85.78643762690544 0.0
  endloop
endfacet
facet normal -1.0 9.251858538542918e-18 0.0
  outer loop
    vertex -1.2407852523210748e-13 1000.0 1000.0
    vertex -9.023892744153272e-14 707.1067811865471 42.893218813452854
    vertex -7.895906151134113e-14 707.1067811865462 1000.0
  endloop
endfacet
facet normal -1.0 9.251858538542918e-18 0.0
  outer loop
    vertex -9.023892744153272e-14 707.1067811865471 42.893218813452854
    vertex -6.767919558114953e-14 0.0 0.0
    vertex -5.639932965095795e-14 -9.023892744153272e-14 219.66991411008974
  endloop
endfacet
facet normal -1.0 9.251858538542918e-18 0.0
  outer loop
    vertex -6.767919558114953e-14 0.0 0.0
    vertex -9.023892744153272e-14 707.1067811865471 42.893218813452854
    vertex -6.767919558114953e-14 1000.0 -4.511946372076636e-14
  endloop
endfacet
facet normal -1.0 9.251858538542918e-18 0.0
  outer loop
    vertex -6.767919558114953e-14 1000.0 -4.511946372076636e-14
    vertex -9.023892744153272e-14 707.1067811865471 42.893218813452854
    vertex -1.2407852523210748e-13 1000.0 1000.0
  endloop
endfacet
facet normal 0.0 1.9818735761132248e-17 -1.0
  outer loop
    vertex -6.767919558114953e-14 1000.0 -4.511946372076636e-14
    vertex 85.78643762690587 792.8932188134528 -4.511946372076636e-14
    vertex -6.767919558114953e-14 0.0 0.0
  endloop
endfacet
facet normal 0.0 1.9818735761132248e-17 -1.0
  outer loop
    vertex 85.78643762690587 792.8932188134528 -4.511946372076636e-14
    vertex -6.767919558114953e-14 1000.0 -4.511946372076636e-14
    vertex 292.8932188134542 1000.0 -9.023892744153272e-14
  endloop
endfacet
facet normal 0.0 1.9818735761132248e-17 -1.0
  outer loop
    vertex -6.767919558114953e-14 0.0 0.0
    vertex 792.8932188134528 85.78643762690544 0.0
    vertex 1000.0 0.0 0.0
  endloop
endfacet
facet normal 0.0 1.9818735761132248e-17 -1.0
  outer loop
    vertex 792.8932188134528 85.78643762690544 0.0
    vertex -6.767919558114953e-14 0.0 0.0
    vertex 85.78643762690587 792.8932188134528 -4.511946372076636e-14
  endloop
endfacet
facet normal 0.0 1.9818735761132248e-17 -1.0
  outer loop
    vertex 1000.0 0.0 0.0
    vertex 792.8932188134528 85.78643762690544 0.0
    vertex 1000.0 292.89321881345273 0.0
  endloop
endfacet
facet normal 9.251858538542918e-18 -1.0 1.9818735761132245e-17
  outer loop
    vertex 1000.0 0.0 0.0
    vertex 707.1067811865474 0.0 42.89321881345277
    vertex -6.767919558114953e-14 0.0 0.0
  endloop
endfacet
facet normal 9.251858538542918e-18 -1.0 1.9818735761132245e-17
  outer loop
    vertex 707.1067811865474 0.0 42.89321881345277
    vertex 1000.0 0.0 0.0
    vertex 1000.0000000000001 -9.023892744153272e-14 1000.0
  endloop
endfacet
facet normal 9.251858538542918e-18 -1.0 1.9818735761132245e-17
  outer loop
    vertex 707.1067811865474 0.0 42.89321881345277
    vertex 1000.0000000000001 -9.023892744153272e-14 1000.0
    vertex 707.1067811865474 0.0 1000.0
  endloop
endfacet
facet normal 9.251858538542918e-18 -1.0 1.9818735761132245e-17
  outer loop
    vertex -5.639932965095795e-14 -9.023892744153272e-14 219.66991411008974
    vertex -6.767919558114953e-14 0.0 0.0
    vertex 707.1067811865474 0.0 42.89321881345277
  endloop
endfacet
facet normal 1.0 -1.7578531223231637e-16 1.1102230246251563e-16
  outer loop
    vertex 1000.0000000000001 -9.023892744153272e-14 1000.0
    vertex 1000.0 292.893218813453 957.1067811865482
    vertex 1000.0 1000.0 1000.0
  endloop
endfacet
facet normal 1.0 -1.7578531223231637e-16 1.1102230246251563e-16
  outer loop
    vertex 1000.0 292.893218813453 957.1067811865482
    vertex 1000.0000000000001 -9.023892744153272e-14 1000.0
    vertex 1000.0 0.0 0.0
  endloop
endfacet
facet normal 1.0 -1.7578531223231637e-16 1.1102230246251563e-16
  outer loop
    vertex 1000.0 292.893218813453 957.1067811865482
    vertex 1000.0 0.0 0.0
    vertex 1000.0 292.89321881345273 0.0
  endloop
endfacet
facet normal 1.0 -1.7578531223231637e-16 1.1102230246251563e-16
  outer loop
    vertex 1000.0 1000.0 1000.0
    vertex 1000.0 292.893218813453 957.1067811865482
    vertex 1000.0 1000.0 780.3300858899094
  endloop
endfacet
facet normal -9.251858538542918e-18 1.0 -1.9818735761132245e-17
  outer loop
    vertex -6.767919558114953e-14 1000.0 -4.511946372076636e-14
    vertex 292.89321881345427 1000.0 957.1067811865479
    vertex 292.8932188134542 1000.0 -9.023892744153272e-14
  endloop
endfacet
facet normal -9.251858538542918e-18 1.0 -1.9818735761132245e-17
  outer loop
    vertex 292.89321881345427 1000.0 957.1067811865479
    vertex -6.767919558114953e-14 1000.0 -4.511946372076636e-14
    vertex -1.2407852523210748e-13 1000.0 1000.0
  endloop
endfacet
facet normal -9.251858538542918e-18 1.0 -1.9818735761132245e-17
  outer loop
    vertex 292.89321881345427 1000.0 957.1067811865479
    vertex 1000.0 1000.0 1000.0
    vertex 1000.0 1000.0 780.3300858899094
  endloop
endfacet
facet normal -9.251858538542918e-18 1.0 -1.9818735761132245e-17
  outer loop
    vertex 1000.0 1000.0 1000.0
    vertex 292.89321881345427 1000.0 957.1067811865479
    vertex -1.2407852523210748e-13 1000.0 1000.0
  endloop
endfacet
facet normal 1.1102230246251565e-16 -1.308410382236479e-16 1.0
  outer loop
    vertex 1000.0000000000001 -9.023892744153272e-14 1000.0
    vertex 914.213562373096 207.10678118654988 1000.0
    vertex 707.1067811865474 0.0 1000.0
  endloop
endfacet
facet normal 1.1102230246251565e-16 -1.308410382236479e-16 1.0
  outer loop
    vertex 914.213562373096 207.10678118654988 1000.0
    vertex 1000.0000000000001 -9.023892744153272e-14 1000.0
    vertex 1000.0 1000.0 1000.0
  endloop
endfacet
facet normal 1.1102230246251565e-16 -1.308410382236479e-16 1.0
  outer loop
    vertex -1.2407852523210748e-13 1000.0 1000.0
    vertex 207.10678118654786 914.2135623730935 1000.0000000000006
    vertex 1000.0 1000.0 1000.0
  endloop
endfacet
facet normal 1.1102230246251565e-16 -1.308410382236479e-16 1.0
  outer loop
    vertex 207.10678118654786 914.2135623730935 1000.0000000000006
    vertex -1.2407852523210748e-13 1000.0 1000.0
    vertex -7.895906151134113e-14 707.1067811865462 1000.0
  endloop
endfacet
facet normal 1.1102230246251565e-16 -1.308410382236479e-16 1.0
  outer loop
    vertex 1000.0 1000.0 1000.0
    vertex 207.10678118654786 914.2135623730935 1000.0000000000006
    vertex 914.213562373096 207.10678118654988 1000.0
  endloop
endfacet
facet normal -0.21269039581923302 -0.5460237291525686 -0.8103214687570486
  outer loop
    vertex 67.30098704791035 774.4077682344562 1024.4077682344541
    vertex 1052.2847498307942 638.0711874576999 857.7411015677872
    vertex 80.88022903976514 666.6666666666664 1093.443361963304
  endloop
endfacet
facet normal -0.21269039581923302 -0.5460237291525686 -0.8103214687570486
  outer loop
    vertex 1052.2847498307942 638.0711874576999 857.7411015677872
    vertex 67.30098704791035 774.4077682344562 1024.4077682344541
    vertex 497.03884117227415 1204.1456223588186 622.0388411722704
  endloop
endfacet
facet normal -0.21269039581923302 -0.5460237291525686 -0.8103214687570486
  outer loop
    vertex 1052.2847498307942 638.0711874576999 857.7411015677872
    vertex 497.03884117227415 1204.1456223588186 622.0388411722704
    vertex 1038.7055078389405 745.8122890254858 788.705507838939
  endloop
endfacet
facet normal -0.9714045207910317 0.028595479208968266 0.23570226039551584
  outer loop
    vertex 1052.2847498307942 638.0711874576999 857.7411015677872
    vertex 835.0679400142772 127.96115882772746 24.407768234454636
    vertex 1060.6601717798228 353.5533905932729 926.7766952966368
  endloop
endfacet
facet normal -0.9714045207910317 0.028595479208968266 0.23570226039551584
  outer loop
    vertex 835.0679400142772 127.96115882772746 24.407768234454636
    vertex 1052.2847498307942 638.0711874576999 857.7411015677872
    vertex 821.4886980224222 235.70226039551568 -44.62782549439498
  endloop
endfacet
facet normal -0.9714045207910317 0.028595479208968266 0.23570226039551584
  outer loop
    vertex 821.4886980224222 235.70226039551568 -44.62782549439498
    vertex 1052.2847498307942 638.0711874576999 857.7411015677872
    vertex 813.1132760733943 520.2200572599397 -113.66341922324409
  endloop
endfacet
facet normal -0.9714045207910317 0.028595479208968266 0.23570226039551584
  outer loop
    vertex 813.1132760733943 520.2200572599397 -113.66341922324409
    vertex 1052.2847498307942 638.0711874576999 857.7411015677872
    vertex 1038.7055078389405 745.8122890254858 788.705507838939
  endloop
endfacet
facet normal 0.9714045207910316 -0.028595479208971514 -0.23570226039551587
  outer loop
    vertex 67.30098704791035 774.4077682344562 1024.4077682344541
    vertex -149.9158227686091 264.2977396044854 191.0744349011208
    vertex -158.29124471763586 548.8155364689102 122.0388411722712
  endloop
endfacet
facet normal 0.9714045207910316 -0.028595479208971514 -0.23570226039551587
  outer loop
    vertex -149.9158227686091 264.2977396044854 191.0744349011208
    vertex 67.30098704791035 774.4077682344562 1024.4077682344541
    vertex -136.33658077675437 156.55663803669654 260.11002862997077
  endloop
endfacet
facet normal 0.9714045207910316 -0.028595479208971514 -0.23570226039551587
  outer loop
    vertex -136.33658077675437 156.55663803669654 260.11002862997077
    vertex 67.30098704791035 774.4077682344562 1024.4077682344541
    vertex 89.25565098879223 382.14886980224156 1162.4789556921528
  endloop
endfacet
facet normal 0.9714045207910316 -0.028595479208971514 -0.23570226039551587
  outer loop
    vertex 89.25565098879223 382.14886980224156 1162.4789556921528
    vertex 67.30098704791035 774.4077682344562 1024.4077682344541
    vertex 80.88022903976514 666.6666666666664 1093.443361963304
  endloop
endfacet
facet normal 0.2126903958192336 0.5460237291525665 0.8103214687570499
  outer loop
    vertex 405.33008588991163 -301.7766952966371 426.7766952966375
    vertex -149.9158227686091 264.2977396044854 191.0744349011208
    vertex -136.33658077675437 156.55663803669654 260.11002862997077
  endloop
endfacet
facet normal 0.2126903958192336 0.5460237291525665 0.8103214687570499
  outer loop
    vertex -149.9158227686091 264.2977396044854 191.0744349011208
    vertex 405.33008588991163 -301.7766952966371 426.7766952966375
    vertex 835.0679400142772 127.96115882772746 24.407768234454636
  endloop
endfacet
facet normal 0.2126903958192336 0.5460237291525665 0.8103214687570499
  outer loop
    vertex -149.9158227686091 264.2977396044854 191.0744349011208
    vertex 835.0679400142772 127.96115882772746 24.407768234454636
    vertex 821.4886980224222 235.70226039551568 -44.62782549439498
  endloop
endfacet
facet normal -0.6666666666666674 -0.6666666666666659 0.3333333333333337
  outer loop
    vertex -117.85113019775595 589.2556509887902 1162.4789556921528
    vertex -136.33658077675437 156.55663803669654 260.11002862997077
    vertex 89.25565098879223 382.14886980224156 1162.4789556921528
  endloop
endfacet
facet normal -0.6666666666666674 -0.6666666666666659 0.3333333333333337
  outer loop
    vertex -136.33658077675437 156.55663803669654 260.11002862997077
    vertex 353.5533905932745 -353.553390593274 219.66991411008965
    vertex 405.33008588991163 -301.7766952966371 426.7766952966375
  endloop
endfacet
facet normal -0.6666666666666674 -0.6666666666666659 0.3333333333333337
  outer loop
    vertex 353.5533905932745 -353.553390593274 219.66991411008965
    vertex -136.33658077675437 156.55663803669654 260.11002862997077
    vertex -353.55339059327224 353.5533905932743 219.66991411008945
  endloop
endfacet
facet normal -0.6666666666666674 -0.6666666666666659 0.3333333333333337
  outer loop
    vertex -353.55339059327224 353.5533905932743 219.66991411008945
    vertex -136.33658077675437 156.55663803669654 260.11002862997077
    vertex -117.85113019775595 589.2556509887902 1162.4789556921528
  endloop
endfacet
facet normal -0.2357022603955163 -0.2357022603955159 -0.9428090415820632
  outer loop
    vertex -353.55339059327224 353.5533905932743 219.66991411008945
    vertex -149.9158227686091 264.2977396044854 191.0744349011208
    vertex 353.5533905932745 -353.553390593274 219.66991411008965
  endloop
endfacet
facet normal -0.2357022603955163 -0.2357022603955159 -0.9428090415820632
  outer loop
    vertex -149.9158227686091 264.2977396044854 191.0744349011208
    vertex -353.55339059327224 353.5533905932743 219.66991411008945
    vertex -158.29124471763586 548.8155364689102 122.0388411722712
  endloop
endfacet
facet normal -0.2357022603955163 -0.2357022603955159 -0.9428090415820632
  outer loop
    vertex 353.5533905932745 -353.553390593274 219.66991411008965
    vertex 821.4886980224222 235.70226039551568 -44.62782549439498
    vertex 1020.2200572599419 313.11327607339183 -113.66341922324405
  endloop
endfacet
facet normal -0.2357022603955163 -0.2357022603955159 -0.9428090415820632
  outer loop
    vertex 821.4886980224222 235.70226039551568 -44.62782549439498
    vertex 353.5533905932745 -353.553390593274 219.66991411008965
    vertex -149.9158227686091 264.2977396044854 191.0744349011208
  endloop
endfacet
facet normal -0.2357022603955163 -0.2357022603955159 -0.9428090415820632
  outer loop
    vertex 1020.2200572599419 313.11327607339183 -113.66341922324405
    vertex 821.4886980224222 235.70226039551568 -44.62782549439498
    vertex 813.1132760733943 520.2200572599397 -113.66341922324409
  endloop
endfacet
facet normal 0.7071067811865468 -0.7071067811865483 1.5437920850028485e-16
  outer loop
    vertex 1020.2200572599419 313.11327607339183 -113.66341922324405
    vertex 835.0679400142772 127.96115882772746 24.407768234454636
    vertex 353.5533905932745 -353.553390593274 219.66991411008965
  endloop
endfacet
facet normal 0.7071067811865468 -0.7071067811865483 1.5437920850028485e-16
  outer loop
    vertex 835.0679400142772 127.96115882772746 24.407768234454636
    vertex 1020.2200572599419 313.11327607339183 -113.66341922324405
    vertex 1255.9223176554583 548.8155364689077 829.1456223588191
  endloop
endfacet
facet normal 0.7071067811865468 -0.7071067811865483 1.5437920850028485e-16
  outer loop
    vertex 835.0679400142772 127.96115882772746 24.407768234454636
    vertex 1255.9223176554583 548.8155364689077 829.1456223588191
    vertex 1060.6601717798228 353.5533905932729 926.7766952966368
  endloop
endfacet
facet normal 0.7071067811865468 -0.7071067811865483 1.5437920850028485e-16
  outer loop
    vertex 405.33008588991163 -301.7766952966371 426.7766952966375
    vertex 353.5533905932745 -353.553390593274 219.66991411008965
    vertex 835.0679400142772 127.96115882772746 24.407768234454636
  endloop
endfacet
facet normal 0.6666666666666675 0.6666666666666657 -0.3333333333333336
  outer loop
    vertex 1255.9223176554583 548.8155364689077 829.1456223588191
    vertex 1038.7055078389405 745.8122890254858 788.705507838939
    vertex 548.8155364689114 1255.922317655456 829.1456223588191
  endloop
endfacet
facet normal 0.6666666666666675 0.6666666666666657 -0.3333333333333336
  outer loop
    vertex 1038.7055078389405 745.8122890254858 788.705507838939
    vertex 1255.9223176554583 548.8155364689077 829.1456223588191
    vertex 1020.2200572599419 313.11327607339183 -113.66341922324405
  endloop
endfacet
facet normal 0.6666666666666675 0.6666666666666657 -0.3333333333333336
  outer loop
    vertex 1038.7055078389405 745.8122890254858 788.705507838939
    vertex 1020.2200572599419 313.11327607339183 -113.66341922324405
    vertex 813.1132760733943 520.2200572599397 -113.66341922324409
  endloop
endfacet
facet normal 0.6666666666666675 0.6666666666666657 -0.3333333333333336
  outer loop
    vertex 548.8155364689114 1255.922317655456 829.1456223588191
    vertex 1038.7055078389405 745.8122890254858 788.705507838939
    vertex 497.03884117227415 1204.1456223588186 622.0388411722704
  endloop
endfacet
facet normal -0.7071067811865468 0.7071067811865483 -1.5437920850028485e-16
  outer loop
    vertex -353.55339059327224 353.5533905932743 219.66991411008945
    vertex 67.30098704791035 774.4077682344562 1024.4077682344541
    vertex -158.29124471763586 548.8155364689102 122.0388411722712
  endloop
endfacet
facet normal -0.7071067811865468 0.7071067811865483 -1.5437920850028485e-16
  outer loop
    vertex 67.30098704791035 774.4077682344562 1024.4077682344541
    vertex -353.55339059327224 353.5533905932743 219.66991411008945
    vertex -117.85113019775595 589.2556509887902 1162.4789556921528
  endloop
endfacet
facet normal -0.7071067811865468 0.7071067811865483 -1.5437920850028485e-16
  outer loop
    vertex 67.30098704791035 774.4077682344562 1024.4077682344541
    vertex 548.8155364689114 1255.922317655456 829.1456223588191
    vertex 497.03884117227415 1204.1456223588186 622.0388411722704
  endloop
endfacet
facet normal -0.7071067811865468 0.7071067811865483 -1.5437920850028485e-16
  outer loop
    vertex 548.8155364689114 1255.922317655456 829.1456223588191
    vertex 67.30098704791035 774.4077682344562 1024.4077682344541
    vertex -117.85113019775595 589.2556509887902 1162.4789556921528
  endloop
endfacet
facet normal 0.23570226039551645 0.2357022603955159 0.9428090415820632
  outer loop
    vertex 1255.9223176554583 548.8155364689077 829.1456223588191
    vertex 1052.2847498307942 638.0711874576999 857.7411015677872
    vertex 1060.6601717798228 353.5533905932729 926.7766952966368
  endloop
endfacet
facet normal 0.23570226039551645 0.2357022603955159 0.9428090415820632
  outer loop
    vertex 1052.2847498307942 638.0711874576999 857.7411015677872
    vertex 1255.9223176554583 548.8155364689077 829.1456223588191
    vertex 548.8155364689114 1255.922317655456 829.1456223588191
  endloop
endfacet
facet normal 0.23570226039551645 0.2357022603955159 0.9428090415820632
  outer loop
    vertex -117.85113019775595 589.2556509887902 1162.4789556921528
    vertex 80.88022903976514 666.6666666666664 1093.443361963304
    vertex 548.8155364689114 1255.922317655456 829.1456223588191
  endloop
endfacet
facet normal 0.23570226039551645 0.2357022603955159 0.9428090415820632
  outer loop
    vertex 80.88022903976514 666.6666666666664 1093.443361963304
    vertex -117.85113019775595 589.2556509887902 1162.4789556921528
    vertex 89.25565098879223 382.14886980224156 1162.4789556921528
  endloop
endfacet
facet normal 0.23570226039551645 0.2357022603955159 0.9428090415820632
  outer loop
    vertex 548.8155364689114 1255.922317655456 829.1456223588191
    vertex 80.88022903976514 666.6666666666664 1093.443361963304
    vertex 1052.2847498307942 638.0711874576999 857.7411015677872
  endloop
endfacet
endsolid prince_ruperts_cube
